<svg width="71" height="58" viewBox="0 0 71 58" fill="#ccc" xmlns="http://www.w3.org/2000/svg">
    <g filter="url(#filter0_d)">
        <path d="M35.5 0C18.1036 0 4 10.3929 4 23.2143C4 28.7455 6.63443 33.817 11.0137 37.8058C9.47066 43.4208 4.33223 48.4375 4.2707 48.4933C4.1385 48.62 4.05009 48.779 4.01639 48.9507C3.9827 49.1224 4.0052 49.2993 4.0811 49.4596C4.15701 49.6198 4.28301 49.7564 4.44353 49.8525C4.60406 49.9485 4.79208 49.9998 4.98438 50C13.1375 50 19.2578 46.4565 22.2848 44.2656C26.5104 45.7022 30.9873 46.4349 35.5 46.4286C52.8976 46.4286 67 36.0357 67 23.2143C67 10.3929 52.8976 0 35.5 0ZM47.3125 25.8929C47.3125 26.1297 47.2088 26.3568 47.0242 26.5242C46.8396 26.6916 46.5892 26.7857 46.3281 26.7857H39.4375V33.0357C39.4375 33.2725 39.3338 33.4996 39.1492 33.6671C38.9646 33.8345 38.7142 33.9286 38.4531 33.9286H32.5469C32.2858 33.9286 32.0354 33.8345 31.8508 33.6671C31.6662 33.4996 31.5625 33.2725 31.5625 33.0357V26.7857H24.6719C24.4108 26.7857 24.1604 26.6916 23.9758 26.5242C23.7912 26.3568 23.6875 26.1297 23.6875 25.8929V20.5357C23.6875 20.2989 23.7912 20.0718 23.9758 19.9044C24.1604 19.7369 24.4108 19.6429 24.6719 19.6429H31.5625V13.3929C31.5625 13.1561 31.6662 12.929 31.8508 12.7615C32.0354 12.5941 32.2858 12.5 32.5469 12.5H38.4531C38.7142 12.5 38.9646 12.5941 39.1492 12.7615C39.3338 12.929 39.4375 13.1561 39.4375 13.3929V19.6429H46.3281C46.5892 19.6429 46.8396 19.7369 47.0242 19.9044C47.2088 20.0718 47.3125 20.2989 47.3125 20.5357V25.8929Z" fill="#6F35A5" />
    </g>
    <defs>
        <filter id="filter0_d" x="0" y="0" width="71" height="58" filterUnits="userSpaceOnUse" color-interpolation-filters="sRGB">
            <feFlood flood-opacity="0" result="BackgroundImageFix" />
            <feColorMatrix in="SourceAlpha" type="matrix" values="0 0 0 0 0 0 0 0 0 0 0 0 0 0 0 0 0 0 127 0" result="hardAlpha" />
            <feOffset dy="4" />
            <feGaussianBlur stdDeviation="2" />
            <feComposite in2="hardAlpha" operator="out" />
            <feColorMatrix type="matrix" values="0 0 0 0 0 0 0 0 0 0 0 0 0 0 0 0 0 0 0.25 0" />
            <feBlend mode="normal" in2="BackgroundImageFix" result="effect1_dropShadow" />
            <feBlend mode="normal" in="SourceGraphic" in2="effect1_dropShadow" result="shape" />
        </filter>
    </defs>
</svg>