<svg height="512pt" viewBox="0 0 512 512" width="512pt" xmlns="http://www.w3.org/2000/svg"><path d="m472.429688 39.5625c-25.496094-25.511719-59.414063-39.5625-95.488282-39.5625-36.078125 0-69.984375 14.050781-95.492187 39.5625l-120.945313 120.941406-120.949218 120.957032c-25.503907 25.511718-39.554688 59.429687-39.554688 95.496093 0 36.066407 14.050781 69.984375 39.554688 95.480469 25.496093 25.511719 59.414062 39.5625 95.488281 39.5625s69.984375-14.050781 95.488281-39.5625l120.949219-120.941406 120.949219-120.957032c25.503906-25.511718 39.550781-59.429687 39.550781-95.496093 0-36.066407-14.046875-69.984375-39.550781-95.480469zm-267.359376 407.414062c-18.710937 18.707032-43.582031 29.015626-70.027343 29.015626-26.457031 0-51.320313-10.304688-70.027344-29.015626-18.707031-18.710937-29.003906-43.570312-29.003906-70.015624 0-26.445313 10.304687-51.328126 29.003906-70.035157l108.21875-108.226562 140.054687 140.070312zm241.898438-241.898437-108.21875 108.226563-140.054688-140.070313 108.21875-108.210937c18.707032-18.707032 43.578126-29.015626 70.027344-29.015626 26.453125 0 51.316406 10.304688 70.023438 29.015626 18.707031 18.710937 29.003906 43.570312 29.003906 70.015624 0 26.445313-10.300781 51.328126-29 70.039063zm0 0"/><path d="m425.09375 121.414062c-5.742188 0-11.386719-2.742187-14.875-7.824218-8.425781-12.308594-22.324219-19.640625-37.191406-19.640625-12.027344 0-23.324219 4.675781-31.835938 13.1875-7.035156 7.03125-18.429687 7.03125-25.460937 0-7.03125-7.035157-7.03125-18.429688 0-25.460938 15.308593-15.316406 35.652343-23.738281 57.296875-23.738281 26.753906 0 51.765625 13.1875 66.90625 35.292969 5.617187 8.207031 3.527344 19.410156-4.683594 25.039062-3.105469 2.125-6.648438 3.144531-10.15625 3.144531zm0 0"/></svg>